<?xml version="1.0" standalone="no"?>
<!DOCTYPE svg PUBLIC "-//W3C//DTD SVG 20010904//EN"
 "http://www.w3.org/TR/2001/REC-SVG-20010904/DTD/svg10.dtd">
<svg version="1.0" xmlns="http://www.w3.org/2000/svg"
 width="475.000000pt" height="496.000000pt" viewBox="0 0 475.000000 496.000000"
 preserveAspectRatio="xMidYMid meet">

<g transform="translate(0.000000,496.000000) scale(0.100000,-0.100000)"
fill="#000000" stroke="none">
<path d="M1398 3342 c-9 -2 -20 -12 -23 -23 -4 -10 -13 -19 -21 -19 -22 0 -17
-20 9 -30 21 -8 21 -9 -5 -9 -14 -1 -28 2 -31 7 -2 4 -2 1 -1 -6 2 -7 -2 -12
-9 -11 -32 4 -34 0 -39 -58 -1 -7 -5 -13 -10 -13 -4 0 -7 -6 -5 -12 1 -8 -7
-13 -20 -12 -17 0 -20 -2 -12 -12 6 -8 9 -19 6 -26 -4 -8 -6 -7 -6 5 -1 9 -5
17 -11 17 -15 0 -12 -21 8 -44 16 -20 16 -20 -2 -6 -11 8 -22 14 -25 12 -3 -2
-8 3 -11 11 -4 13 -7 13 -18 1 -7 -8 -9 -14 -5 -14 4 0 15 -5 23 -10 13 -8 12
-11 -5 -25 -17 -14 -17 -16 -2 -11 9 3 17 1 17 -4 0 -6 -9 -10 -19 -10 -11 0
-21 -6 -24 -12 -2 -7 -2 -3 0 10 2 12 -1 22 -7 22 -5 0 -9 -3 -8 -7 1 -5 -4
-19 -11 -32 -7 -13 -9 -21 -3 -17 5 3 12 -1 16 -9 6 -18 -10 -30 -18 -13 -3 7
-5 1 -3 -14 3 -18 0 -25 -9 -21 -7 2 -11 13 -9 24 2 11 0 17 -6 14 -5 -4 -7
-11 -4 -16 4 -5 2 -9 -4 -9 -6 0 -8 -6 -5 -14 3 -8 0 -17 -7 -22 -8 -4 -10 -3
-5 4 4 7 3 12 -3 12 -15 0 -23 -18 -11 -25 8 -5 5 -14 -6 -27 -11 -11 -18 -33
-17 -51 1 -18 -1 -26 -3 -19 -3 6 -11 9 -17 5 -7 -4 -7 -1 1 9 18 22 2 29 -28
12 -22 -12 -23 -13 -5 -14 20 -1 20 -1 1 -15 -11 -8 -16 -15 -12 -15 5 0 4 -6
-1 -12 -6 -7 -9 -20 -8 -29 2 -12 -3 -15 -16 -12 -15 4 -17 8 -8 19 6 8 8 14
5 14 -13 0 -31 -25 -31 -40 1 -8 -8 -26 -19 -39 -12 -13 -16 -21 -10 -18 7 4
17 0 23 -7 10 -11 8 -16 -11 -21 -13 -5 -24 -3 -26 4 -2 6 -9 11 -15 11 -6 0
-1 -10 11 -23 16 -17 18 -26 11 -37 -9 -12 -10 -12 -5 3 5 15 0 17 -28 15 -35
-2 -40 -23 -8 -31 15 -4 15 -5 0 -6 -16 -1 -23 -12 -19 -33 1 -8 -15 -12 -32
-9 -5 1 -6 -3 -2 -9 3 -5 -1 -10 -10 -10 -9 0 -13 -5 -10 -10 4 -6 11 -7 17
-4 6 4 8 2 4 -4 -3 -5 -1 -12 6 -14 7 -3 2 -7 -10 -10 -12 -4 -22 -2 -22 3 0
5 -9 9 -20 9 -12 0 -20 -7 -20 -16 0 -14 3 -14 15 -4 13 10 15 9 15 -10 0 -16
-4 -20 -15 -16 -11 4 -15 -1 -15 -19 0 -17 -6 -25 -17 -25 -15 0 -16 2 -3 10
12 7 10 9 -7 7 -18 -1 -20 -4 -10 -17 7 -8 17 -19 22 -23 6 -5 -6 -6 -25 -3
-19 3 -30 2 -23 -2 15 -10 0 -37 -16 -28 -6 4 -11 0 -11 -8 0 -9 -4 -16 -10
-16 -5 0 -9 -6 -7 -12 1 -7 -3 -12 -10 -11 -6 1 -14 -5 -17 -14 -6 -14 -4 -14
16 -1 15 10 30 12 43 7 19 -7 19 -8 -2 -8 -25 -1 -39 -16 -23 -26 18 -11 11
-23 -17 -28 -25 -5 -26 -4 -10 8 11 8 14 16 8 19 -5 4 -13 2 -16 -4 -4 -6 -16
-8 -27 -4 -21 6 -21 6 1 -24 25 -36 25 -38 7 -45 -10 -4 -14 0 -11 13 2 11 0
22 -4 25 -15 9 -22 -57 -8 -74 40 -47 253 -291 302 -345 11 -13 29 -34 40 -47
51 -61 242 -284 255 -299 14 -14 176 -202 208 -240 7 -8 27 -31 45 -50 18 -20
55 -62 82 -95 28 -33 55 -65 60 -71 6 -6 33 -37 60 -69 28 -33 73 -84 100
-115 28 -32 115 -131 194 -221 80 -90 147 -166 150 -169 3 -3 24 -25 45 -50
22 -25 74 -83 117 -130 42 -47 86 -96 96 -109 20 -24 20 -20 26 495 20 1511
14 1581 -159 1844 -23 36 -50 74 -61 85 -22 25 -230 261 -259 295 -12 14 -77
88 -145 164 -68 77 -153 172 -188 213 -35 40 -68 70 -74 66 -5 -3 -8 -2 -4 3
8 14 -16 40 -35 36z m2 -36 c0 -3 -4 -8 -10 -11 -5 -3 -10 -1 -10 4 0 6 5 11
10 11 6 0 10 -2 10 -4z m-50 -66 c0 -5 -2 -10 -4 -10 -3 0 -8 5 -11 10 -3 6
-1 10 4 10 6 0 11 -4 11 -10z m-30 -4 c0 -2 -7 -9 -15 -16 -13 -11 -14 -10 -9
4 5 14 24 23 24 12z m-650 -904 c0 -13 -12 -22 -22 -16 -10 6 -1 24 13 24 5 0
9 -4 9 -8z"/>
<path d="M3271 3263 c3 -20 -2 -34 -11 -28 -6 4 -8 11 -5 16 4 5 4 9 2 9 -4 0
-186 -200 -249 -273 -11 -12 -38 -42 -61 -67 -23 -25 -69 -77 -102 -115 -33
-39 -62 -72 -65 -75 -3 -3 -37 -41 -75 -85 -167 -191 -222 -285 -266 -457 -21
-81 -22 -105 -29 -1078 -4 -547 -7 -996 -6 -997 5 -6 197 196 291 307 59 69
126 145 149 170 55 60 214 242 371 425 71 83 134 155 140 161 5 6 48 55 95
110 47 54 121 138 165 187 44 49 107 122 140 162 87 105 213 252 262 305 23
25 38 46 33 48 -6 2 -6 11 0 22 7 13 7 21 0 25 -8 5 -7 12 2 23 10 12 7 12
-14 -2 -18 -12 -28 -14 -28 -7 0 7 -5 9 -12 5 -6 -4 -8 -3 -4 4 3 6 -1 18 -10
26 -8 9 -11 16 -5 16 5 0 13 -5 16 -10 9 -15 35 7 35 29 -1 14 -2 13 -11 -2
-10 -17 -12 -16 -35 9 -14 14 -23 32 -20 39 2 7 -2 16 -10 19 -10 4 -13 2 -8
-7 4 -6 -2 -4 -12 6 -10 10 -19 23 -20 30 0 6 -2 23 -3 37 -2 14 -5 19 -8 13
-6 -16 -33 -17 -33 -2 0 5 5 7 11 3 8 -5 8 -1 0 13 -6 11 -7 23 -3 27 3 4 0
11 -8 16 -13 8 -12 10 3 10 9 0 17 3 17 8 0 4 -11 7 -25 7 -18 0 -24 -4 -20
-15 4 -8 2 -11 -2 -6 -4 4 -8 20 -8 34 0 15 -5 27 -12 27 -6 0 -15 3 -19 8 -4
4 -2 7 4 7 7 0 12 7 12 15 0 12 -3 13 -19 3 -11 -7 -17 -16 -14 -22 3 -5 1 -6
-6 -2 -6 4 -9 11 -6 16 3 5 0 12 -6 16 -8 4 -7 9 2 15 11 6 10 9 -4 15 -9 3
-17 11 -17 16 0 6 6 5 15 -2 8 -7 15 -8 15 -2 0 10 -59 39 -72 34 -5 -1 -8 3
-8 8 0 6 5 10 11 10 5 0 8 4 4 9 -3 5 0 13 6 17 7 4 9 3 6 -3 -8 -13 19 -50
30 -40 4 5 1 14 -7 20 -17 13 -19 25 -7 44 5 7 -4 6 -23 -3 -18 -9 -28 -20
-24 -27 4 -7 1 -7 -7 1 -8 7 -14 16 -15 20 -6 34 -18 73 -25 78 -14 9 0 24 16
17 8 -3 15 0 15 7 0 6 -4 8 -10 5 -5 -3 -10 -1 -10 5 0 13 -42 9 -52 -5 -5 -6
-8 -3 -8 7 0 9 5 20 10 23 6 3 10 13 10 21 0 9 -5 12 -12 8 -7 -5 -9 -2 -5 9
4 10 2 14 -6 12 -7 -3 -21 7 -31 22 -11 14 -15 23 -9 20 7 -5 9 0 6 14 -3 11
-9 17 -12 12 -3 -4 -12 -9 -19 -11 -10 -2 -10 2 -2 18 6 11 15 20 20 20 6 0
10 4 10 10 0 5 -7 7 -15 4 -10 -4 -15 0 -15 11 0 9 -4 14 -9 10 -5 -3 -8 -18
-5 -33 3 -17 1 -22 -4 -14 -5 7 -8 28 -7 47 1 26 -2 32 -14 27 -13 -5 -14 -3
-3 10 10 13 9 15 -12 13 -25 -3 -29 12 -9 36 6 8 7 22 2 34 -4 11 -8 14 -8 8
-1 -7 -5 -13 -11 -13 -5 0 -7 7 -4 15 8 20 -5 19 -30 -2 -21 -18 -21 -18 -3 3
17 20 17 23 2 38 -9 9 -21 14 -26 10 -5 -3 -9 -2 -8 3 3 19 -2 33 -12 33 -5 0
-7 -5 -3 -12 4 -7 3 -8 -4 -4 -7 4 -12 2 -12 -5 0 -7 -3 -10 -6 -7 -3 4 2 18
11 32 17 25 17 26 -4 26 -11 0 -21 3 -21 8 0 16 16 29 33 26 18 -2 23 11 7 21
-5 3 -10 1 -10 -5 0 -7 -5 -6 -14 2 -8 7 -12 16 -9 21 2 4 -4 7 -13 7 -16 0
-16 -1 1 -20 21 -24 4 -27 -20 -4 -17 17 -16 39 3 39 5 0 14 3 18 7 3 4 -3 6
-15 3 -15 -3 -21 1 -21 15 0 10 -5 22 -10 25 -6 4 -10 3 -9 -2z m129 -227 c0
-2 -8 -10 -17 -17 -16 -13 -17 -12 -4 4 13 16 21 21 21 13z m54 -71 c-10 -8
-23 -15 -28 -15 -6 0 -1 7 10 15 10 8 23 15 28 15 6 0 1 -7 -10 -15z m6 -59
c0 -2 -7 -6 -15 -10 -8 -3 -15 -1 -15 4 0 6 7 10 15 10 8 0 15 -2 15 -4z m105
-164 c-3 -3 -11 0 -18 7 -9 10 -8 11 6 5 10 -3 15 -9 12 -12z m22 -34 c-3 -8
-6 -5 -6 6 -1 11 2 17 5 13 3 -3 4 -12 1 -19z m303 -478 c0 -5 -2 -10 -4 -10
-3 0 -8 5 -11 10 -3 6 -1 10 4 10 6 0 11 -4 11 -10z m155 -200 c3 -5 1 -10 -4
-10 -6 0 -11 5 -11 10 0 6 2 10 4 10 3 0 8 -4 11 -10z"/>
<path d="M3466 2938 c3 -5 10 -6 15 -3 13 9 11 12 -6 12 -8 0 -12 -4 -9 -9z"/>
<path d="M3676 2623 c-6 -14 -5 -15 5 -6 7 7 10 15 7 18 -3 3 -9 -2 -12 -12z"/>
<path d="M801 2594 c0 -11 3 -14 6 -6 3 7 2 16 -1 19 -3 4 -6 -2 -5 -13z"/>
<path d="M3702 2590 c-10 -17 -10 -20 3 -20 8 0 15 9 15 20 0 11 -1 20 -3 20
-1 0 -8 -9 -15 -20z"/>
<path d="M730 2520 c-9 -6 -10 -10 -3 -10 6 0 15 5 18 10 8 12 4 12 -15 0z"/>
<path d="M3787 2443 c-4 -3 -7 -11 -7 -17 0 -6 5 -5 12 2 6 6 9 14 7 17 -3 3
-9 2 -12 -2z"/>
<path d="M3920 2240 c0 -6 7 -10 15 -10 8 0 15 2 15 4 0 2 -7 6 -15 10 -8 3
-15 1 -15 -4z"/>
<path d="M3981 2144 c0 -11 3 -14 6 -6 3 7 2 16 -1 19 -3 4 -6 -2 -5 -13z"/>
</g>
</svg>
